<?xml version="1.0" encoding="UTF-8"?>
<svg id="Layer_2" data-name="Layer 2" xmlns="http://www.w3.org/2000/svg" viewBox="0 0 253.93 243.02">
  <g id="black">
    <path id="G" d="M149.64,0c18.92,0,36.42,4.97,52.51,14.91v.8c-2.83,0-5.21,.31-7.15,.93v.8c11.96,6.21,24.41,19.04,37.35,38.48,5.17,0,8.37,1.73,9.58,5.19,0,.8-1.58,1.69-4.73,2.66,0,2.66-8.77,8.21-26.31,16.64-7.92,5.77-13.5,8.66-16.73,8.66h-6.31l-15.16-19.97c-3.88-2.22-5.98-3.99-6.31-5.33v-.8h3.15v-1.86c-.73,0-4.16-1.73-10.31-5.19h-3.27c-4.93,0-8.89-1.15-11.88-3.46h-12.73c-1.21,0-2.26,.27-3.15,.8l-1.58-.8c-18.35,6.3-30.32,14.47-35.89,24.5-1.29,1.69-4.73,2.84-10.31,3.46v.8c.16,1.24,.69,1.86,1.58,1.86,1.05,0,1.58-.31,1.58-.93l8,.93h14.31v.8c0,1.15-.53,1.73-1.58,1.73h-19.16c-3.15,2.31-6.31,12.21-9.46,29.69v7.06c0,7.1,1.58,16.42,4.73,27.96l-1.58,.8h-.93l-3.72,.93c-1.05-.62-1.86-.93-2.43-.93l-1.58,.93c-1.05-.62-1.86-.93-2.43-.93v.93c3.56,11.1,8.09,19.29,15.87,28.08,5.25,4.08,6.48,6.01,8.66,6.01h19.89c12.45,4.08,21.5,6.13,27.16,6.13,10.99-4.08,17.87-6.13,20.61-6.13,1.05,.62,1.86,.93,2.43,.93,12.05-8.88,18.39-14.42,19.04-16.64,3.07-2.4,7.32-8.52,12.73-18.38v-.93h-63.66c-1.05,0-1.58-.58-1.58-1.73v-24.37c2.67-1.77,4-3.24,4-4.39l-.73-1.73c.48-1.07,.73-2.26,.73-3.6-2.67-.71-4-1.55-4-2.53,1.05-1.51,1.58-2.4,1.58-2.66,1.13,0,1.7,.31,1.7,.93,6.22-.62,10.71-.93,13.46-.93h82.82c1.13,0,2.18,.31,3.15,.93,.89-.62,1.94-.93,3.15-.93h14.31l4.85,6.13v5.19c-2.67,1.6-4.29,5.42-4.85,11.45-.49,8.52-.73,14.34-.73,17.44,2.67,0,4,.58,4,1.73v.93c-6.06,22.73-11.4,34.09-16.01,34.09-.89-.62-1.94-.93-3.15-.93-12.45,24.68-34.72,42.74-66.82,54.2-8.97,1.77-15.6,2.66-19.89,2.66h-15.16c-40.74,0-72.84-18.95-96.28-56.86H13.58c-2.67-1.6-7.19-11.5-13.58-29.7v-5.33H21.46l-3.15-27.96v-4.26c2.34-22.19,4.45-33.29,6.31-33.29,10.27-.53,16.94-.8,20.01-.8v-1.73h-.85c-5.58,0-14.07-.31-25.47-.93,0-.89,2.67-2.04,8-3.46,10.27-28.32,26.15-49,47.66-62.05,8.41,0,15.6-2.04,21.58-6.13C109.78,3.51,127.81,0,149.64,0ZM11.88,79.5h2.43v2.66c-1.86,.62-2.91,.93-3.15,.93l-.85-1.86c.16-1.15,.69-1.73,1.58-1.73Zm94.71,31.56h1.7c1.05,.18,1.58,.76,1.58,1.73v1.73h-3.27c-1.05,0-1.58-.58-1.58-1.73,.16-1.15,.69-1.73,1.58-1.73Zm10.43-.93c5.25,.44,7.88,1.33,7.88,2.66,0,1.15-.53,1.73-1.58,1.73h-7.15c-1.05,0-1.58-.58-1.58-1.73,0-.89,.81-1.77,2.43-2.66Z"/>
  </g>
</svg>