<?xml version="1.0" encoding="UTF-8"?>
<svg id="Layer_2" data-name="Layer 2" xmlns="http://www.w3.org/2000/svg" viewBox="0 0 819.81 243.02">
  <g id="black">
    <path id="black-2" data-name="black" d="M149.64,0c18.92,0,36.42,4.97,52.51,14.91v.8c-2.83,0-5.21,.31-7.15,.93v.8c11.96,6.21,24.41,19.04,37.35,38.48,5.17,0,8.37,1.73,9.58,5.19,0,.8-1.58,1.69-4.73,2.66,0,2.66-8.77,8.21-26.31,16.64-7.92,5.77-13.5,8.66-16.73,8.66h-6.31l-15.16-19.97c-3.88-2.22-5.98-3.99-6.31-5.33v-.8h3.15v-1.86c-.73,0-4.16-1.73-10.31-5.19h-3.27c-4.93,0-8.89-1.15-11.88-3.46h-12.73c-1.21,0-2.26,.27-3.15,.8l-1.58-.8c-18.35,6.3-30.32,14.47-35.89,24.5-1.29,1.69-4.73,2.84-10.31,3.46v.8c.16,1.24,.69,1.86,1.58,1.86,1.05,0,1.58-.31,1.58-.93l8,.93h14.31v.8c0,1.15-.53,1.73-1.58,1.73h-19.16c-3.15,2.31-6.31,12.21-9.46,29.69v7.06c0,7.1,1.58,16.42,4.73,27.96l-1.58,.8h-.93l-3.72,.93c-1.05-.62-1.86-.93-2.43-.93l-1.58,.93c-1.05-.62-1.86-.93-2.43-.93v.93c3.56,11.1,8.09,19.29,15.87,28.08,5.25,4.08,6.48,6.01,8.66,6.01h19.89c12.45,4.08,21.5,6.13,27.16,6.13,10.99-4.08,17.87-6.13,20.61-6.13,1.05,.62,1.86,.93,2.43,.93,12.05-8.88,18.39-14.42,19.04-16.64,3.07-2.4,7.32-8.52,12.73-18.38v-.93h-63.66c-1.05,0-1.58-.58-1.58-1.73v-24.37c2.67-1.77,4-3.24,4-4.39l-.73-1.73c.48-1.07,.73-2.26,.73-3.6-2.67-.71-4-1.55-4-2.53,1.05-1.51,1.58-2.4,1.58-2.66,1.13,0,1.7,.31,1.7,.93,6.22-.62,10.71-.93,13.46-.93h82.82c1.13,0,2.18,.31,3.15,.93,.89-.62,1.94-.93,3.15-.93h14.31l4.85,6.13v5.19c-2.67,1.6-4.29,5.42-4.85,11.45-.49,8.52-.73,14.34-.73,17.44,2.67,0,4,.58,4,1.73v.93c-6.06,22.73-11.4,34.09-16.01,34.09-.89-.62-1.94-.93-3.15-.93-12.45,24.68-34.72,42.74-66.82,54.2-8.97,1.77-15.6,2.66-19.89,2.66h-15.16c-40.74,0-72.84-18.95-96.28-56.86H13.58c-2.67-1.6-7.19-11.5-13.58-29.7v-5.33H21.46l-3.15-27.96v-4.26c2.34-22.19,4.45-33.29,6.31-33.29,10.27-.53,16.94-.8,20.01-.8v-1.73h-.85c-5.58,0-14.07-.31-25.47-.93,0-.89,2.67-2.04,8-3.46,10.27-28.32,26.15-49,47.66-62.05,8.41,0,15.6-2.04,21.58-6.13C109.78,3.51,127.81,0,149.64,0ZM11.88,79.5h2.43v2.66c-1.86,.62-2.91,.93-3.15,.93l-.85-1.86c.16-1.15,.69-1.73,1.58-1.73Zm94.71,31.56h1.7c1.05,.18,1.58,.76,1.58,1.73v1.73h-3.27c-1.05,0-1.58-.58-1.58-1.73,.16-1.15,.69-1.73,1.58-1.73Zm10.43-.93c5.25,.44,7.88,1.33,7.88,2.66,0,1.15-.53,1.73-1.58,1.73h-7.15c-1.05,0-1.58-.58-1.58-1.73,0-.89,.81-1.77,2.43-2.66ZM317.25,5.72c6.26,.58,9.39,1.42,9.39,2.5V57.27h9.52c1.1,.17,1.65,.75,1.65,1.75v16.01l.89,4.25c7.44,0,11.17-2.83,11.17-8.51-.59-1.08-.89-1.92-.89-2.5l.89-1.63c-.59-1-.89-2.13-.89-3.38,3.47-1.58,5.2-3.58,5.2-6.01h-7.74c-1.19,0-1.78-.54-1.78-1.63,1.02,0,16.75-16.35,47.21-49.04h73.51v.88c-14.87,15.84-24.98,26.29-47.21,49.04v.75h8.63v1.75c0,.75-6.85,7.51-20.56,20.27h-10.41l-4.19,.88v-.88l-1.78,.88h-6.85v1.63h18.02c1.18,.17,1.78,.75,1.78,1.75-.51,.08-8.55,8.26-24.11,24.52v.88c6.77,8.26,18.37,23.6,36.82,44.04-1.44,1.17-2.58,1.75-3.43,1.75,0,2.67,3.13,4.34,9.39,5l2.54,3.38v1.75h-7.74v2.5c2.88,0,4.32,.29,4.32,.88l4.32-.88h9.39c4.4,0,6.98,1.13,7.74,3.38l-.89,1.75-4.19-.88c-2.12,0-4.7,.29-7.74,.88-1.1-.58-1.95-.88-2.54-.88l-1.78,.88c-1.1-.58-1.95-.88-2.54-.88l-.89,1.63c6.94,8.01,17.5,20.65,34.16,39.66,1.18,0,5.46,4.5,12.82,13.51v.88l-.76,1.63c.51,1.08,.76,1.96,.76,2.63h4.32c.85,0,1.73,.83,2.66,2.5,0,1.08-.59,1.63-1.78,1.63h-47.4c-5.75,0-14.34-.25-25.76-.75-1.61-2.84-4.19-4.25-7.74-4.25v-1.75c1.1-1.42,1.65-2.25,1.65-2.5v-.88c-1.27,0-9.82-10.13-25.64-30.4l-18.91-22.9c.17-1.08,.72-1.63,1.65-1.63l3.55,.88c1.1-.58,1.95-.88,2.54-.88v.88l1.65-.88h9.52c1.1,0,1.65-.58,1.65-1.75-1.35-1.08-2.5-1.63-3.43-1.63-3.64,0-11.09-.29-22.34-.88l-1.65-2.5c.59,0,.89-.29,.89-.88,1.1,.58,1.95,.88,2.54,.88l1.65-.88c1.02,.58,2.16,.88,3.43,.88h1.78v-.88c0-1.08-1.44-2.75-4.32-5l-1.65,.75c-2.88-.67-4.32-1.5-4.32-2.5v-.88l6.85-5c.59-1.08,.89-1.96,.89-2.63-1.1-2.5-2.24-3.88-3.43-4.13h-.89c-.76,0-4.19,3.38-10.28,10.13-2.28,0-3.43,.54-3.43,1.63v.88l5.08,3.38c.59,1.08,.89,1.92,.89,2.5-1.44,1.17-2.28,1.75-2.54,1.75h-7.74c-1.19,.17-1.78,.71-1.78,1.63v68.56c0,1.08-.55,1.63-1.65,1.63h-34.27c-5.76,0-14.34-.25-25.76-.75l-.89-1.75v-67.69c.17-1.08,.76-1.63,1.78-1.63h9.39l.89-4.25v-.88c-4.06,0-6.09-.83-6.09-2.5v-.88c0-1.67,2.03-2.5,6.09-2.5v-4.25c0-.58,.25-.88,.76-.88l-.76-1.63v-61.68c0-1.17-.89-1.75-2.67-1.75-11.42-.58-17.68-.88-18.78-.88l-.89-1.63,1.78-.88c10.32-.58,17.18-.88,20.56-.88v-16.89l-.89-4.25h-9.39c-1.19,0-1.78-.54-1.78-1.63V8.22c.17-1.08,.76-1.63,1.78-1.63h3.43c30.97,0,46.96-.29,47.97-.88Zm-54.07,147.13h1.78c1.1,.17,1.65,.75,1.65,1.75v1.63c0,.83-.85,1.67-2.54,2.5-.85,0-1.69-.83-2.54-2.5v-1.63c.17-1.17,.72-1.75,1.65-1.75Zm53.18-72.69v1.63h4.31v-.75l-.89-1.75c-.93,.58-2.07,.88-3.43,.88Zm21.45,4.25c.17,1.08,.76,1.63,1.78,1.63l.89-1.63v-1.75h-.89c-1.19,.17-1.78,.75-1.78,1.75Zm33.51,143.75h6.85c.93,0,2.07,1.13,3.43,3.38h-9.39c-.85,0-1.74-.88-2.67-2.63l1.78-.75ZM557.19,1.28c1,.61,2.21,.91,3.63,.91h2.85c13.67,0,22.62,1.43,26.86,4.29h5.55c1.9,0,4.99,5.74,18.88,11.38h9.4c.95,0,1.83,.87,2.65,2.6-.71,.61-3.25,.91-7.62,.91,7.63,7.56,8.99,9.29,9.76,10.53l-.07,.91c-.36,.95-11.08,14.55-27.38,33.48h-13.1c-11.85-11.18-21.07-17.16-27.65-17.94h-.85c-12.53,0-18.97,2.3-19.33,6.89-2.66,0-4.53,3.99-5.62,11.96l.66,4.29h8.4c2.09,0,4.78,1.43,8.07,4.29,4.3,.78,6.4,1.91,6.29,3.38l-.98,1.69,1.78,.91h22.49l-.2,2.6h-18.79l-.06,.78c.07,1.56,6.4,4.42,18.98,8.58,24.25,6.68,43.24,15.82,56.96,27.43-.05,.7,2.81,4.12,8.6,10.27-7.54,.52-11.35,1.34-11.44,2.47,1.42,0,2.26,1.43,2.52,4.29h11.25c1.71,0,3.29,3.42,4.76,10.27l-1.92,.91h-9.4c-1.25,.17-1.91,.74-1.98,1.69h12.24c.85,0,1.69,.87,2.5,2.6l-.13,1.69c-.09,1.13-.75,1.69-1.98,1.69h-9.4l-.07,.91c-.23,2.95-.27,7.8-.13,14.56-.73,9.45-5.35,20.59-13.84,33.41-1.25,.17-1.91,.74-1.98,1.69l-.13,1.69h13.1c1.22,.17,1.79,.74,1.72,1.69-.76,0-5.08,3.73-12.97,11.18-17.2,11.35-39.85,17.03-67.95,17.03h-.85c-40.04,0-58.76-9.71-79.09-29.12-16.16-.95-20.74-5.38-20.33-10.67-4.38-5.4-6-8.33-8.34-12.65,8.62-4.76,13.11-7.8,19.13-11.65l3.78,.78c1.84-.43,10.03-5.27,25.24-14.56h11.25c1.04,0,4.13,4.29,9.25,12.87l-.13,1.69h-2.85l-.13,1.69c9.96,8.58,20.38,11.46,30.97,11.83,20.49,.72,27.87-5.83,28.79-17.71,.14-1.82-.29-8.59-6.63-14.66h9.4l.06-.78c-1.39-2.86-3.75-4.29-7.07-4.29h-9.4c-2.66,0-6.1-.3-10.32-.91l-1.92,.91c-1.19-.61-2.11-.91-2.78-.91l.13-1.69h1c1.71,0,8-.3,18.86-.91l.13-1.69-25.74-7.67c-1.9,0-4.06-.3-6.48-.91-1.09,.61-2.35,.91-3.77,.91-3.85-1.73-9.37-3.47-16.54-5.2l.13-1.69h6.69l.13-1.69c-18.85-6.59-31.31-15.43-37.38-26.52-4.29-5.89-6.58-12.44-6.88-19.63l1.92-.91h3.7c.66,0,.97,.3,.93,.91,.99-.61,2.87-.91,5.62-.91l.13-1.69h-12.1l.13-1.69c3.13,0,4.74-.56,4.83-1.69l-6.28-3.51c-.78-2.25-1.64-3.38-2.59-3.38h-8.31l.53-6.89c1.38-17.85,9.58-33.54,28.76-47.06h2.85c.66,0,.97,.3,.93,.91l1.92-.91,1.78,.91c3.84-.61,5.81-1.47,5.9-2.6l-1.92-.91h-5.55l.06-.78c8.4-4.25,12.63-6.8,12.7-7.67,.13-1.65,7.73-3.08,22.83-4.29h14.09c1.42,0,2.73-.3,3.91-.91Zm-76.2,80.48h1.69l-.04,1.69h-1.69l.04-1.69Zm4.29,0h2.47l-.04,1.69h-2.47l.04-1.69Zm30.81,0l-.04,1.69h.78l.04-1.69h-.78Zm2.47,0l-.04,1.69h2.6c.03-1.12-.52-1.69-1.65-1.69h-.91Zm31.01,67.6h8.45l-.06,2.6-5.96-.91h-2.47l.04-1.69Zm-92.23-51.22h20.11c.93,0,1.01,.05,2.36,1.59l-1.26,.72h-20.32c-.85,0-1.74-.6-2.67-1.79l1.78-.51ZM668.05,5.97h140.75c1.25,0,2.38,.29,3.38,.88,1-.58,2.13-.88,3.38-.88,1.17,1.42,1.75,2.55,1.75,3.38l-.88,1.75c.58,2.92,1.71,5.17,3.38,6.76V49.88l-.88,1.63-4.25-.75h-17.64l-5.13,.75c-.92-.5-2.29-.75-4.13-.75l-5.88,.75c-1-.5-2.13-.75-3.38-.75l-1.75,.75c-.58,0-.88-.25-.88-.75l-4.13,.75h-8.51v29.53c0,1.17-2.25,2.04-6.76,2.63,0,2.17-.54,3.25-1.63,3.25h-7.63c-1.08,.25-1.63,.83-1.63,1.75,.17,1.08,.71,1.63,1.63,1.63h8.51l1.63,.88-.88,4.25v7.63l5.13,3.38c0,1.08-3.38,1.92-10.13,2.5v49.67c0,1.59-2.84,2.71-8.51,3.38v.88h12.76c3.33,1.5,5,2.63,5,3.38v66.68c0,1.08-.54,1.63-1.63,1.63h-33.78c-5.67,0-14.1-.29-25.27-.88-.58-10.34-.88-17.93-.88-22.77v-45.54c-5.09-1.08-7.63-2.21-7.63-3.38l-1.63,.88h-7.63v-.88c.17-1.08,.75-1.63,1.75-1.63l4.13,.88c1.08-.58,1.96-.88,2.63-.88v-50.67c.17-1.08,.71-1.63,1.63-1.63h7.63v-3.38c-2.84,0-4.25-.54-4.25-1.63v-11.01c0-1.17-.58-1.75-1.75-1.75h-7.51c-1.17,0-1.75-.54-1.75-1.63,.17-1.17,.75-1.75,1.75-1.75h7.51l3.38-4.13h4.25l.88-7.63c0-1.08-.29-1.63-.88-1.63l.88-4.25v-13.51c0-2.42-1.13-4.09-3.38-5-.58,0-.88,.25-.88,.75l-4.25-.75h-48.79c-1.17,0-1.75-.58-1.75-1.75V16.98c-2.25,0-3.38-.54-3.38-1.63v-.88c0-1.25,.29-2.38,.88-3.38-.58-1-.88-2.13-.88-3.38,.58,0,.88-.29,.88-.88,12.09-.58,21.1-.88,27.02-.88Zm7.51,80.95h1.75c1.08,.25,1.63,.83,1.63,1.75,0,1.08-.54,1.63-1.63,1.63h-1.75c-1.08,0-1.63-.54-1.63-1.63,.17-1.17,.71-1.75,1.63-1.75Zm23.65,66.68v1.63h.88v-1.63h-.88Z"/>
  </g>
</svg>