<?xml version="1.0" encoding="UTF-8"?>
<svg id="Layer_2" data-name="Layer 2" xmlns="http://www.w3.org/2000/svg" viewBox="0 0 820 243.51">
  <defs>
    <style>
      .cls-1 {
        fill: #d81919;
      }
    </style>
  </defs>
  <g id="black">
    <path id="red" class="cls-1" d="M149.73,0c18.92,0,36.42,4.97,52.27,14.91v.8c-2.59,0-4.97,.31-7,.93v.8c12.05,6.21,24.5,19.04,37.44,38.48,5.17,0,8.37,1.73,9.58,5.19,0,.8-1.58,1.69-4.73,2.66,0,2.66-8.77,8.21-26.31,16.64-7.92,5.77-16.73,9.08-16.73,9.08h-6.82l-14.42-19.9c-3.69-2.21-5.69-3.98-6-5.31v-.8h3v-2.39s-4.54-1.73-10.69-5.61h-3.27c-4.93,.42-11.88-3-11.88-3h-13.16c-1.19,0-2.22,.27-3.1,.81l-1.55-.81c-18.02,6.38-29.76,14.65-35.24,24.8-1.27,1.71-4.64,2.88-10.12,3.5v.81c.16,1.26,.67,1.89,1.55,1.89,1.03,0,1.55-.31,1.55-.94l7.86,.94h14.05v.26c0,1.16-.52,1.74-1.57,1.74h-19.04c-3.13,2.33-6.26,12.3-9.4,29.91v7.11c0,7.16,1.57,16.55,4.7,28.17l-1.57,.81h-1.02l-3.71,.93c-1.05-.62-1.86-.93-2.42-.93l-1.57,.93c-1.05-.62-1.85-.93-2.42-.93v.93c3.55,11.09,8.06,19.28,15.82,28.07,5.24,4.08,6.46,6,8.63,6h19.83c12.41,4.08,21.44,6.12,27.08,6.12,10.96-4.08,17.81-6.12,20.55-6.12,1.05,.62,1.85,.93,2.42,.93,12.01-8.87,18.33-14.42,18.98-16.63,3.06-2.4,7.29-8.52,12.69-18.36v-.93h-63.42c-1.05,0-1.58-.58-1.58-1.73v-24.36c2.67-1.77,4-3.24,4-4.39l-.73-1.73c.48-1.07,.73-2.26,.73-3.59-2.67-.71-4-1.55-4-2.53,1.05-1.51,1.58-2.4,1.58-2.66,1.13,0,1.7,.31,1.7,.93,6.22-.62,10.71-.93,13.46-.93h82.81c1.13,0,2.18,.31,3.15,.93,.89-.62,1.94-.93,3.15-.93h14.31l4.85,6.12v4.81s-4.26,5.42-4.83,11.45c-.49,8.52-.73,14.34-.73,17.44,2.67,0,4,.58,3.56,1.73v.93c-5.62,22.73-10.95,34.09-15.56,34.09-.89-.62-1.94-.93-3.15-.93-12.45,24.68-34.72,42.74-66.82,54.2-8.97,1.77-15.6,2.66-19.89,3.15h-15.16c-40.74-.49-96.28-57-96.28-57H13.57c-2.67-1.6-7.19-11.49-13.57-29.68v-5.32H22.12l-3.12-27.95v-4.26c2.32-22.18,4.39-33.27,6.23-33.27,10.14-.53,16.73-.8,19.77-.8v-1.73h-1.13s-14.07-.73-25.47-1.35c0-.89,2.67-2.04,8-3.46,10.27-28.32,26.15-49,47.66-62.05,8.41,0,15.6-2.04,21.58-6.13C109.88,3.51,127.91,0,149.73,0ZM11.57,79.51h2.43v2.66c-1.86,.62-2.91,.93-3.15,.93l-.85-1.86c.16-1.15,.69-1.73,1.58-1.73Zm95.11,32h1.7c1.05-.27,1.58,.3,1.62,1.28v1.72h-3.31c-1.05,0-1.58-.57-1.58-1.72,.16-1.15,.69-1.73,1.58-1.28Zm10.43-1.39c5.25,.44,7.88,1.33,7.88,2.66,0,1.15-.53,1.73-1.58,1.73h-7.15c-1.05,0-1.58-.58-1.58-1.73,0-.89,.81-1.77,2.43-2.66ZM317.54,5.63c6.3,.59,9.46,1.43,9.46,2.52V57.51h9.37c1.08,.17,1.63,.75,1.63,1.75v16.01l.88,4.25c7.33,0,11-2.83,11-8.51-.58-1.08-.88-1.92-.88-2.5l.88-1.63c-.58-1-.88-2.13-.88-3.38,3.42-1.58,5.12-3.58,5.12-6.01h-7.54c-1.18,0-1.77-.55-1.77-1.64,1.01,0,16.68-16.45,47-49.36h73.18v.88c-14.8,15.94-24.87,26.46-47,49.36v.76h9v1.75c0,.75-6.82,7.5-20.47,20.25h-10.36l-4.17,.88v-1.1l-2.03,.22h-6.97v2h18.18c1.18,.17,1.76,.75,1.76,1.75-.5,.08-8.49,8.26-23.94,24.52v.88c6.72,8.26,18.24,23.6,36.56,44.04-1.43,1.17-2.56,1.75-3.4,1.75,0,2.67,3.11,4.34,9.32,5l2.52,3.38v1.68h-8v3c2.87,0,4.3,.29,4.3,.87l4.3-.87h9.36c4.38,0,6.96,1.12,7.71,3.37l-.88,1.75-4.17-.87c-2.11,0-4.68,.29-7.72,.87-1.1-.58-1.94-.87-2.53-.87l-1.77,.87c-1.1-.58-1.94-.87-2.53-.87l-.89,1.62c6.92,7.99,17.44,20.59,34.04,39.55,1.18,0,5.44,4.49,12.77,13.47v.87l-.76,1.62c.51,1.08,.76,1.95,.76,2.62h4.88s1.73,.87,2.66,2.54c0,1.08-.59,1.63-1.78,1.46h-47.4c-5.75,.16-14.34-.09-25.76-.59-1.61-2.84-4.19-4.25-7.6-4.25v-1.75c.96-1.42,2-2.5,2-2.5v-.98c-1.28,0-9.87-10.13-25.77-30.4l-19.01-22.9c.17-1.08,.72-1.63,1.66-1.63l3.57,.88c1.1-.58,1.96-.88,2.55-.88v.88l1.66-.88h8.4c1.07,0,1.6-.6,1.6-1.82-1.32-1.12-2.43-1.68-3.33-1.68-3.54,0-10.78-.3-21.73-.91l-1.6-2.59c.57,0,.86-.3,.86-.91,1.07,.61,1.89,.91,2.47,.91l1.6-.91c.99,.61,2.1,.91,3.33,.91h1.73v-.91c0-1.12-1.4-2.85-4.2-5.18l-1.6,.78c-2.8-.69-4.2-1.56-4.2-2.59v-.49l6.67-4.94c.57-1.07,.86-1.93,.86-2.59-1.07-2.47-2.18-3.83-3.33-4.07h-.86c-.74,0-4.07,3.33-10,10-2.22,0-3.33,.54-3.33,1.6v.86l4.94,3.33c.57,1.07,.86,1.89,.86,2.47-1.4,1.15-2.22,1.73-2.47,1.73l-7.54,1c-1.19,.17-1.79,.7-1.79,1.61v67.78c0,1.07-.56,1.61-1.66,1.61h-34.5c-5.79,0-14.44-.25-25.94-.74l-.89-1.73v-66.92c.17-1.07,.77-1.61,1.79-1.61h9.34l.88-4.27v-.88c-4,0-6-.84-6-2.51v-.88c0-1.67,2-2.51,6-2.51v-4.27c0-.59,.25-.88,.75-.88l-.75-1.63v-61.91c0-1.17-.88-1.76-2.63-1.76-11.25-.58-17.42-.88-18.5-.88l-.87-1.63,1.75-.88c10.17-.58,16.92-.88,20.25-.88v-16.95l-.88-4.27h-9.34c-1.19,0-1.79-.55-1.79-1.64V8.15c.17-1.09,.77-1.64,1.79-1.64h3.45c31.18,0,47.28-.29,48.3-.88Zm-53.92,146.88h1.75c1.08,.17,1.62,.75,1.62,1.75v1.63c0,.83-.83,1.67-2.5,2.5-.83,0-1.67-.83-2.5-2.5v-1.63c.17-1.17,.71-1.75,1.62-1.75Zm53.38-72.63v1.63h4v-.75l-.82-1.75c-.86,.58-1.92,.88-3.18,.88Zm21.33,4.38c.17,1.08,.76,1.63,1.78,1.63l.89-1.63v-1.75h-.89c-1.19,.17-1.78,.75-1.78,1.75Zm33.08,144.25h6.85c.93-.34,2.07,.78,3.43,3h-9.39c-.85,.04-1.74-.84-2.67-2.59l1.78-.41ZM557.79,1.58c1.02,.62,2.25,.93,3.7,.93h3.17c12.74,0,21.09,1.33,25.04,4h5.94c2,0,5.26,6.06,19.92,12h8.8c.94,0,1.81,.86,2.62,2.58-.71,.6-3.22,.9-7.55,.9,7.56,7.49,8.91,9.21,9.67,10.44l-.07,.9c-.36,.95-10.99,14.42-27.13,33.18h-13.17c-11.89-11.22-21.14-17.22-27.74-18h-.89c-12.45,0-18.85,2.28-19.21,6.85-2.64,0-4.51,3.96-5.59,11.89l.66,4.26h8.53c2.03,0,4.65,1.39,7.85,4.18,4.19,.76,6.23,1.86,6.12,3.29l-.96,1.65,1.73,.89h22.69l-.2,3h-18.93l-.06,.78c.07,1.57,6.42,4.43,19.04,8.61,24.33,6.7,43.38,15.87,57.14,27.52-.05,.7,2.82,4.13,8.63,10.3-7.56,.52-11.39,1.35-11.48,2.48,1.43,0,2.27,1.43,2.52,4.3h11.18c1.68,0,3.24,3.37,4.68,10.11l-1.89,.89h-9.39l-1.98,2h12.24c.86,0,1.69,.87,2.51,2.61l-.13,1.7c-.09,1.13-.75,1.7-1.99,1.7h-9.43l-.07,.91c-.23,2.93-.27,7.76-.13,14.49-.73,9.4-5.32,20.48-13.77,33.24-1.24,.17-1.9,.73-1.97,1.68l-.13,1.68h13.18c1.22,.18,1.8,.74,1.73,1.7-.76,0-5.1,3.74-13.01,11.22-17.26,11.39-39.98,17.09-68.17,17.09h-.64c-40.1,0-58.85-9.72-79.21-29.17-16.18-.95-20.77-5.39-20.36-10.69-4.39-5.41-6.01-8.34-8.35-12.67,8.63-4.77,13.13-7.81,19.16-11.67l3.79,.78c1.84-.43,10.05-5.28,25.28-14.58h11.12c1.07,0,4.25,4.42,9.53,13.26l-.13,1.74h-2.98l-.13,1.79c9.96,9.1,20.38,12.16,30.97,12.55,20.49,.76,27.87-6.19,28.79-18.79,.14-1.93-.29-9.11-6.63-15.56h9.35l.06-.77c-1.37-2.82-3.7-4.23-6.97-4.23h-9.44s-6.1,.15-10.32-.46l-1.92,.91c-1.19-.61-2.11-.91-2.78-.91l.13-1.54h.93c1.69,0,7.92-.3,18.69-.9l.13-1.67-25.5-7.6c-1.88,0-4.02-.3-6.42-.9-1.08,.6-2.33,.9-3.74,.9-3.82-1.72-9.28-3.43-16.38-5.15l.13-1.67h6.56l.13-1.7c-18.95-6.62-31.47-15.5-37.57-26.66-4.31-5.92-6.62-12.5-6.91-19.73l1.93-.91h3.8s.97,.24,.93,.84c.99-.61,2.87-.91,5.62-.91l.13-1.93h-12.09l.13-1.65c3.05,0,4.62-.55,4.7-1.65l-6.11-3.42c-.76-2.19-1.6-3.29-2.52-3.29h-8.44l.53-6.9c1.38-17.87,9.59-33.57,28.78-47.1h2.83s.97,.32,.93,.93l1.92-.91,1.78,.91c3.84-.61,5.81-1.47,5.9-2.6l-1.92-.33h-6.13l.06-.8c8.57-4.33,12.89-6.94,12.95-7.83,.13-1.68,7.89-3.14,23.29-4.38h14.38c1.45,0,2.78-.31,3.99-.93Zm-76.7,79.93h1.69l-.04,2h-1.69l.04-2Zm4.29,0h2.47l-.04,2h-2.47l.04-2Zm30.81,0l-.04,2h.78l.04-2h-.78Zm2.47,0l-.04,2h2.6c.03-1.19-.52-1.76-1.65-2h-.91Zm31.01,68h8.45l-.06,2.45-5.96-.45h-2.47l.04-2Zm-92.23-51h20.11c.93-.37,1.01-.32,2.36,1.21l-1.26,.79h-20.32c-.85-.07-1.74-.67-2.67-1.86l1.78-.14ZM668.14,5.51h140.85c1.25,0,2.38,.29,3.38,.88,1-.58,2.13-.88,3.38-.88,1.17,1.42,1.75,2.55,1.75,3.38l-.88,1.75c.58,2.92,1.71,5.17,3.38,6.76V49.88l-.97,1.63-4.25-1h-17.64l-5.13,1c-.92-.5-2.29-.75-4.13-.75l-5.88,.75c-1-.5-2.13-.75-3.38-.75l-1.75,.75c-.58,0-.88-.25-.88-.75l-4.13,.75h-8.86v30.02c0,1.19-2.29,2.08-6.87,2.67,0,2.21-.55,3.31-1.65,3.31h-7.14s-1.63,.24-1.63,1.16c.17,1.08,.71,1.63,1.63,1.84h8.51l1.63,.66-.47,4.25v7.63l4.73,3.38c0,1.08-9.73,2.5-9.73,2.5v49.32c0,1.59-3,2.71-9,3.38v.88h12.96c3.36,1.51,5.04,2.64,5.04,3.39v66.98c0,.9-.73,1.63-1.63,1.63h-34.04c-5.71,0-14.2-.29-25.46-.88-.59-10.39-.88-18.01-.88-22.87v-45.74c-5.12-1.09-7.69-2.22-7.69-3.39l-1.64,.88h-7.68v-.88c.18-1.08,.79-1.63,1.85-1.63l4.37,.88c1.15-.58,2.07-.88,2.78-.88v-49.87c.16-1.08,.69-1.63,1.58-1.63h7.42v-3.83s-4.08-.54-4-1.63v-11.01c-.08-1.17-.66-1.75-1.83-1.54h-7.51c-1.17-.21-1.75-.76-1.75-1.84,.17-1.17,1.75-1.16,1.75-1.16h7.51l3.38-5h4.58l.88-7.62c0-1.08-.29-1.63-.88-1.63l.88-4.25v-13.5c0-2.42-1.12-4.08-3.37-5-.58,0-.88,.25-.88,.75l-4.25-.75h-49.13s-1.75-.33-2.37-1.5V16.98c-1.63,0-2.75-.54-3-1.63v-.88c.25-1.25,.54-2.38,1.12-3.38-.58-1-.88-2.13-.88-3.38,.58,0,.88-.29,.88-.88,12.09-.58,27.02-1.34,27.02-1.34Zm7.51,82h1.75c1.08-.34,1.63,.24,1.63,1.16,0,1.08-.54,1.63-1.63,1.84h-1.75c-1.08-.21-1.63-.76-1.63-1.84,.17-1.17,.71-1.75,1.63-1.16Zm23.35,66v2h1v-2h-1Z"/>
  </g>
</svg>