<svg width="25" height="25" viewBox="0 0 25 25" fill="none" xmlns="http://www.w3.org/2000/svg">
<path d="M13.271 5C14.1147 5.00225 14.5429 5.00675 14.9127 5.01725L15.0582 5.0225C15.2262 5.0285 15.3919 5.036 15.5921 5.045C16.3901 5.0825 16.9346 5.2085 17.4123 5.39374C17.9073 5.58424 18.3243 5.84223 18.7412 6.25847C19.1227 6.63326 19.4178 7.0868 19.6059 7.58744C19.7912 8.06518 19.9172 8.60966 19.9547 9.40839C19.9637 9.60789 19.9712 9.77363 19.9772 9.94238L19.9817 10.0879C19.9929 10.4569 19.9974 10.8851 19.9989 11.7288L19.9997 12.2883V13.2708C20.0015 13.8178 19.9957 14.3649 19.9824 14.9118L19.9779 15.0573C19.9719 15.226 19.9644 15.3917 19.9554 15.5912C19.9179 16.39 19.7904 16.9337 19.6059 17.4122C19.4178 17.9128 19.1227 18.3664 18.7412 18.7412C18.3665 19.1227 17.9129 19.4178 17.4123 19.6059C16.9346 19.7911 16.3901 19.9171 15.5921 19.9546L15.0582 19.9771L14.9127 19.9816C14.5429 19.9921 14.1147 19.9974 13.271 19.9989L12.7115 19.9996H11.7298C11.1826 20.0016 10.6353 19.9958 10.0882 19.9824L9.94268 19.9779C9.76464 19.9711 9.58665 19.9634 9.4087 19.9546C8.61074 19.9171 8.06627 19.7911 7.5878 19.6059C7.08744 19.4177 6.63418 19.1226 6.25961 18.7412C5.87784 18.3665 5.58248 17.9129 5.39416 17.4122C5.20892 16.9345 5.08292 16.39 5.04542 15.5912L5.02293 15.0573L5.01918 14.9118C5.00535 14.3649 4.9991 13.8178 5.00043 13.2708V11.7288C4.99835 11.1818 5.00385 10.6348 5.01693 10.0879L5.02218 9.94238C5.02818 9.77363 5.03567 9.60789 5.04467 9.40839C5.08217 8.60966 5.20817 8.06593 5.39341 7.58744C5.58217 7.0866 5.87805 6.63304 6.26036 6.25847C6.63471 5.87714 7.08771 5.58204 7.5878 5.39374C8.06627 5.2085 8.60999 5.0825 9.4087 5.045C9.60819 5.036 9.77469 5.0285 9.94268 5.0225L10.0882 5.018C10.635 5.00467 11.1821 4.99892 11.7291 5.00075L13.271 5ZM12.5 8.74991C11.5055 8.74991 10.5518 9.14499 9.84853 9.84823C9.14531 10.5515 8.75024 11.5053 8.75024 12.4998C8.75024 13.4944 9.14531 14.4482 9.84853 15.1514C10.5518 15.8546 11.5055 16.2497 12.5 16.2497C13.4946 16.2497 14.4483 15.8546 15.1516 15.1514C15.8548 14.4482 16.2499 13.4944 16.2499 12.4998C16.2499 11.5053 15.8548 10.5515 15.1516 9.84823C14.4483 9.14499 13.4946 8.74991 12.5 8.74991ZM12.5 10.2499C12.7955 10.2498 13.0881 10.308 13.3611 10.421C13.6341 10.534 13.8821 10.6997 14.0911 10.9086C14.3 11.1175 14.4658 11.3655 14.5789 11.6385C14.692 11.9114 14.7503 12.204 14.7503 12.4994C14.7504 12.7949 14.6922 13.0875 14.5792 13.3605C14.4662 13.6335 14.3005 13.8815 14.0916 14.0905C13.8827 14.2995 13.6347 14.4652 13.3618 14.5784C13.0888 14.6915 12.7963 14.7497 12.5008 14.7498C11.9041 14.7498 11.3318 14.5127 10.9099 14.0908C10.488 13.6688 10.2509 13.0965 10.2509 12.4998C10.2509 11.9031 10.488 11.3308 10.9099 10.9089C11.3318 10.4869 11.9041 10.2499 12.5008 10.2499M16.4381 7.62494C16.1895 7.62494 15.951 7.72371 15.7752 7.89952C15.5994 8.07533 15.5006 8.31378 15.5006 8.56241C15.5006 8.81105 15.5994 9.0495 15.7752 9.22531C15.951 9.40112 16.1895 9.49989 16.4381 9.49989C16.6867 9.49989 16.9252 9.40112 17.101 9.22531C17.2768 9.0495 17.3756 8.81105 17.3756 8.56241C17.3756 8.31378 17.2768 8.07533 17.101 7.89952C16.9252 7.72371 16.6867 7.62494 16.4381 7.62494Z" fill="#808080"/>
</svg>
