<svg width="29" height="24" viewBox="0 0 29 24" fill="none" xmlns="http://www.w3.org/2000/svg">
<path d="M0.493418 10.8251H3.0012C3.15218 10.8251 3.27245 10.7019 3.27501 10.5472V3.84697C3.27501 3.69225 3.15218 3.569 3.00376 3.569H0.493418C0.342439 3.569 0.222168 3.69487 0.222168 3.84697V10.5472C0.222168 10.7019 0.344998 10.8251 0.493418 10.8251ZM4.63382 15.0682H7.13905C7.29003 15.0682 7.41286 14.9449 7.41286 14.7902V1.16951C7.41286 1.01479 7.29259 0.888916 7.14161 0.888916H4.63638C4.4854 0.888916 4.36257 1.01479 4.36257 1.16951V14.7902C4.36257 14.9449 4.4854 15.0682 4.63638 15.0682M8.77679 19.424H11.282C11.433 19.424 11.5533 19.2981 11.5533 19.146V5.52268C11.5533 5.36796 11.433 5.24208 11.282 5.24208H8.77679C8.62581 5.24208 8.50298 5.36796 8.50298 5.52268V19.1434C8.50298 19.2981 8.62581 19.4213 8.77679 19.4213M17.0576 19.4213H19.5628C19.7138 19.4213 19.8341 19.2955 19.8341 19.1434V5.52268C19.8341 5.36796 19.7138 5.24208 19.5628 5.24208H17.0576C16.9066 5.24208 16.7838 5.36796 16.7838 5.52268V19.1434C16.7838 19.2981 16.9066 19.4213 17.0576 19.4213ZM21.198 15.0655H23.7032C23.8542 15.0655 23.9745 14.9423 23.977 14.7876V1.16951C23.9745 1.01479 23.8517 0.888916 23.7007 0.888916H21.1954C21.0445 0.888916 20.9242 1.01217 20.9242 1.16689V14.7902C20.9242 14.9449 21.0445 15.0682 21.1954 15.0682M25.3359 10.8251H27.8411C27.9921 10.8251 28.1123 10.7019 28.1149 10.5472V3.84697C28.1149 3.69225 27.9921 3.569 27.8436 3.569H25.3384C25.1874 3.569 25.0672 3.69487 25.0672 3.84697V10.5472C25.0672 10.7019 25.1874 10.8251 25.3384 10.8251M12.9172 24H15.4224C15.5734 24 15.6962 23.8768 15.6962 23.7221V10.1014C15.6962 9.94665 15.5734 9.82077 15.4224 9.82077H12.9172C12.7662 9.82077 12.6434 9.94665 12.6434 10.1014V23.7221C12.6434 23.8768 12.7662 24 12.9172 24Z" fill="white"/>
</svg>
