<svg width="17" height="22" viewBox="0 0 17 22" fill="none" xmlns="http://www.w3.org/2000/svg">
<path d="M7.80963 0.2021C13.6114 0.121672 14.9356 4.67923 14.9356 7.7231C14.9356 10.767 12.5664 11.1939 12.5664 11.1939C14.7549 11.5403 16.5 13.4912 16.5 17.4033C16.5 21.3153 12.7266 21.5566 12.7266 21.5566L6.38279 22L2.91116 6.83633C2.91116 5.68766 3.67488 4.75965 5.17973 4.75965C6.68458 4.75965 6.98637 6.13105 6.98637 6.13105L7.67003 9.25741H9.65733C9.87906 9.25741 11.6241 8.83465 11.0226 6.21354C10.4211 3.59243 8.39268 3.55118 8.39268 3.55118H3.57428C1.96883 3.55118 1.18458 2.15917 1.18458 2.15917L0 0L7.80963 0.2021ZM9.39455 18.3498L11.2813 18.189C11.2813 18.189 12.7676 18.1085 12.7676 16.1927C12.7676 14.2769 11.7842 12.5426 10.1377 12.5426H8.33109L9.39455 18.3498Z" fill="white"/>
</svg>
