<?xml version="1.0" encoding="UTF-8"?>
<svg id="Layer_2" data-name="Layer 2" xmlns="http://www.w3.org/2000/svg" viewBox="0 0 98.37 65.41">
  <g id="Layer_1-2" data-name="Layer 1">
    <path id="mnet" d="M98.37,52.69h-14.33V18.6s.3-4.73-2.98-4.73c-2.59,0-3.61,4.1-3.61,4.1l-11.77,37.95s-3.09,9.49-16.49,9.49-16.49-9.49-16.49-9.49L20.92,17.97s-1.03-4.1-3.61-4.1c-3.28,0-2.98,4.73-2.98,4.73V52.69H0V12.55C0,5.66,7.41,.43,15.46,.03s14.99,3.2,16.9,9c1.17,3.56,12.55,38.31,12.55,38.31,0,0,1.3,5.35,4.28,5.35s4.28-5.35,4.28-5.35c0,0,11.38-34.75,12.55-38.31C67.93,3.23,74.87-.37,82.91,.03c8.04,.4,15.46,5.63,15.46,12.52,0,2.8,0,40.13,0,40.13Z"/>
  </g>
</svg>