<?xml version="1.0" encoding="UTF-8"?>
<svg id="Layer_2" data-name="Layer 2" xmlns="http://www.w3.org/2000/svg" viewBox="0 0 75.71 50.16">
  <g id="Layer_1-2" data-name="Layer 1">
    <path id="spotify" d="M61.13,48.57c-.95,1.56-3,2.06-4.56,1.1-12.49-7.63-28.2-9.35-46.71-5.12-1.78,.41-3.56-.71-3.97-2.5-.41-1.78,.7-3.56,2.49-3.97,20.26-4.63,37.63-2.64,51.65,5.93,1.56,.96,2.06,3,1.1,4.56Zm6.51-14.48c-1.2,1.95-3.75,2.57-5.7,1.37-14.29-8.79-36.08-11.33-52.99-6.2-2.19,.66-4.51-.57-5.17-2.76-.66-2.19,.58-4.5,2.76-5.17,19.31-5.86,43.32-3.02,59.74,7.07,1.95,1.2,2.57,3.75,1.37,5.7h0Zm.56-15.08C51.06,8.83,22.78,7.9,6.42,12.86c-2.63,.8-5.41-.69-6.2-3.31C-.58,6.92,.9,4.14,3.53,3.34,22.32-2.36,53.54-1.26,73.27,10.46c2.37,1.4,3.14,4.46,1.74,6.82-1.4,2.36-4.46,3.14-6.81,1.74h0Z"/>
  </g>
</svg>