<svg width="25" height="25" viewBox="0 0 25 25" fill="none" xmlns="http://www.w3.org/2000/svg">
<path d="M22 6.76471C21.3375 7.07353 20.6233 7.27647 19.8834 7.37353C20.6405 6.90588 21.2256 6.16471 21.501 5.27353C20.7868 5.71471 19.9952 6.02353 19.1606 6.2C18.4809 5.44118 17.5258 5 16.4417 5C14.4197 5 12.7677 6.69412 12.7677 8.78529C12.7677 9.08529 12.8021 9.37647 12.8623 9.65C9.79924 9.49118 7.0717 7.98235 5.25621 5.69706C4.93786 6.25294 4.75717 6.90588 4.75717 7.59412C4.75717 8.90882 5.40249 10.0735 6.40057 10.7353C5.78967 10.7353 5.2218 10.5588 4.72275 10.2941V10.3206C4.72275 12.1559 5.99618 13.6912 7.6826 14.0353C7.14126 14.1879 6.57269 14.209 6.02199 14.0971C6.25568 14.8492 6.71337 15.5074 7.3307 15.9791C7.94804 16.4507 8.69398 16.7121 9.46367 16.7265C8.15899 17.7857 6.54169 18.3583 4.87763 18.35C4.58509 18.35 4.29254 18.3324 4 18.2971C5.6348 19.3735 7.57935 20 9.66157 20C16.4417 20 20.1673 14.2294 20.1673 9.22647C20.1673 9.05882 20.1673 8.9 20.1587 8.73235C20.8815 8.20294 21.501 7.53235 22 6.76471Z" fill="#808080"/>
</svg>
