<svg width="23" height="15" viewBox="0 0 23 15" fill="none" xmlns="http://www.w3.org/2000/svg">
<path d="M18.4861 14.5249C18.1988 14.9914 17.5788 15.1409 17.107 14.8539C13.3298 12.5722 8.57878 12.0579 2.98098 13.3228C2.44267 13.4454 1.90436 13.1105 1.78037 12.5752C1.65638 12.0429 1.99206 11.5107 2.5334 11.388C8.66044 10.0035 13.9135 10.5986 18.1534 13.1613C18.6252 13.4484 18.7764 14.0584 18.4861 14.5249ZM20.4548 10.1949C20.0919 10.778 19.3208 10.9634 18.731 10.6046C14.4095 7.97606 7.81971 7.21651 2.70578 8.75056C2.04348 8.94792 1.34186 8.58011 1.14226 7.92522C0.942665 7.27034 1.31767 6.57957 1.97694 6.37921C7.81669 4.62687 15.0778 5.47613 20.0436 8.49339C20.6333 8.85223 20.8208 9.61477 20.4579 10.1979L20.4548 10.1949ZM20.6242 5.68545C15.4407 2.64128 6.88825 2.36317 1.94065 3.84639C1.14529 4.08561 0.304557 3.64005 0.0656448 2.85658C-0.176292 2.07012 0.271291 1.2388 1.06666 0.999573C6.74914 -0.704926 16.1907 -0.375988 22.1575 3.1287C22.8742 3.54735 23.1071 4.4624 22.6837 5.16812C22.2603 5.87384 21.3349 6.10709 20.6242 5.68844V5.68545Z" fill="white"/>
</svg>
