<svg width="25" height="25" viewBox="0 0 25 25" fill="none" xmlns="http://www.w3.org/2000/svg">
<rect x="0.5" y="0.5" width="24" height="24" rx="4.5" fill="#808080" stroke="#808080"/>
<path d="M10.8 15.2857L15.2115 12.5L10.8 9.71429V15.2857ZM20.626 8.015C20.7365 8.45143 20.813 9.03643 20.864 9.77929C20.9235 10.5221 20.949 11.1629 20.949 11.72L21 12.5C21 14.5336 20.864 16.0286 20.626 16.985C20.4135 17.8207 19.9205 18.3593 19.1555 18.5914C18.756 18.7121 18.025 18.7957 16.903 18.8514C15.798 18.9164 14.7865 18.9443 13.8515 18.9443L12.5 19C8.9385 19 6.72 18.8514 5.8445 18.5914C5.0795 18.3593 4.5865 17.8207 4.374 16.985C4.2635 16.5486 4.187 15.9636 4.136 15.2207C4.0765 14.4779 4.051 13.8371 4.051 13.28L4 12.5C4 10.4664 4.136 8.97143 4.374 8.015C4.5865 7.17929 5.0795 6.64071 5.8445 6.40857C6.244 6.28786 6.975 6.20429 8.097 6.14857C9.202 6.08357 10.2135 6.05571 11.1485 6.05571L12.5 6C16.0615 6 18.28 6.14857 19.1555 6.40857C19.9205 6.64071 20.4135 7.17929 20.626 8.015Z" fill="#0D0D0D"/>
</svg>
