<svg width="20" height="25" viewBox="0 0 20 25" fill="none" xmlns="http://www.w3.org/2000/svg">
<path fill-rule="evenodd" clip-rule="evenodd" d="M19.5556 3.27963C19.5556 5.09444 18.0538 6.55926 16.2081 6.55926C14.3624 6.55926 12.8606 5.08796 12.8606 3.27963C12.8606 1.4713 14.3557 0 16.2081 0C18.0604 0 19.5556 1.4713 19.5556 3.27963ZM17.9811 16.0806C17.9811 20.9481 13.9522 24.8889 8.99053 24.8889C4.02887 24.8889 0 20.9481 0 16.0806C0 11.213 4.02887 7.27222 8.99053 7.27222C13.9522 7.27222 17.9811 11.2194 17.9811 16.0806ZM12.9797 16.0806C12.9797 13.6954 11.1935 11.7639 8.99053 11.7639C6.78755 11.7639 5.00135 13.6954 5.00135 16.0806C5.00135 18.4657 6.78755 20.3972 8.99053 20.3972C11.1935 20.3972 12.9797 18.4657 12.9797 16.0806Z" fill="white"/>
</svg>
