<?xml version="1.0" encoding="UTF-8"?>
<svg id="Layer_2" data-name="Layer 2" xmlns="http://www.w3.org/2000/svg" viewBox="0 0 109 88.13">
  <g id="Layer_1-2" data-name="Layer 1">
    <path id="vibe" d="M1.06,37.89H10.86c.59,0,1.06-.47,1.07-1.06V11.28c0-.59-.48-1.06-1.06-1.06,0,0,0,0,0,0H1.06c-.59,0-1.06,.48-1.06,1.06,0,0,0,0,0,0v25.55c0,.59,.48,1.06,1.06,1.06m16.18,16.18h9.79c.59,0,1.07-.47,1.07-1.06V1.07C28.1,.48,27.63,0,27.04,0c0,0,0,0,0,0h-9.79c-.59,0-1.07,.48-1.07,1.07V53.01c0,.59,.48,1.06,1.07,1.06m16.18,16.61h9.79c.59,0,1.06-.48,1.06-1.06V17.67c0-.59-.47-1.07-1.06-1.07h-9.79c-.59,0-1.07,.48-1.07,1.07,0,0,0,0,0,0v51.94c0,.59,.48,1.06,1.07,1.06m32.36,0h9.79c.59,0,1.06-.48,1.06-1.06V17.67c0-.59-.47-1.07-1.06-1.07h-9.79c-.59,0-1.07,.48-1.07,1.07,0,0,0,0,0,0v51.94c0,.59,.48,1.06,1.07,1.06m16.18-16.61h9.79c.59,0,1.06-.47,1.07-1.06h0V1.07C92.82,.48,92.34,0,91.75,0h-9.79c-.59,0-1.06,.47-1.06,1.06,0,0,0,0,0,0V53.01c0,.59,.47,1.06,1.06,1.06,0,0,0,0,0,0m16.18-16.18h9.79c.59,0,1.06-.47,1.07-1.06h0V11.28c0-.59-.48-1.06-1.06-1.06,0,0,0,0,0,0h-9.79c-.59,0-1.06,.48-1.06,1.06v25.55c0,.59,.47,1.06,1.06,1.06,0,0,0,0,0,0m-48.54,50.24h9.79c.59,0,1.07-.47,1.07-1.06V35.13c0-.59-.48-1.07-1.07-1.07h-9.79c-.59,0-1.07,.48-1.07,1.07,0,0,0,0,0,0v51.94c0,.59,.48,1.06,1.07,1.06"/>
  </g>
</svg>