<?xml version="1.0" encoding="utf-8"?>
<!-- Generator: Adobe Illustrator 27.0.0, SVG Export Plug-In . SVG Version: 6.00 Build 0)  -->
<svg version="1.1" id="Layer_1" xmlns="http://www.w3.org/2000/svg" xmlns:xlink="http://www.w3.org/1999/xlink" x="0px" y="0px"
	 viewBox="0 0 25 25" style="enable-background:new 0 0 25 25;" xml:space="preserve">
<style type="text/css">
	.st0{fill:#FFFFFF;}
</style>
<path class="st0" d="M10.8,15.3l4.4-2.8l-4.4-2.8V15.3z M20.6,8c0.1,0.4,0.2,1,0.2,1.8c0.1,0.7,0.1,1.4,0.1,1.9l0.1,0.8
	c0,2-0.1,3.5-0.4,4.5c-0.2,0.8-0.7,1.4-1.5,1.6c-0.4,0.1-1.1,0.2-2.3,0.3c-1.1,0.1-2.1,0.1-3.1,0.1L12.5,19c-3.6,0-5.8-0.1-6.7-0.4
	c-0.8-0.2-1.3-0.8-1.5-1.6c-0.1-0.4-0.2-1-0.2-1.8c-0.1-0.7-0.1-1.4-0.1-1.9L4,12.5C4,10.5,4.1,9,4.4,8c0.2-0.8,0.7-1.4,1.5-1.6
	C6.2,6.3,7,6.2,8.1,6.1c1.1-0.1,2.1-0.1,3.1-0.1L12.5,6c3.6,0,5.8,0.1,6.7,0.4C19.9,6.6,20.4,7.2,20.6,8z"/>
</svg>
