<svg width="14" height="22" viewBox="0 0 14 22" fill="none" xmlns="http://www.w3.org/2000/svg">
<path d="M13.4683 0C13.3455 0 13.0218 0.222453 12.6702 0.387866C12.4413 0.496241 12.0562 0.65595 11.6097 0.792844C11.0627 0.958258 10.5715 1.06093 9.66729 1.06093C8.91936 1.06093 8.02073 0.924034 6.92674 0.638838C6.43556 0.507648 5.93322 0.399274 5.43087 0.308011C4.90621 0.211045 4.42061 0.15971 3.9685 0.15971C3.29313 0.15971 2.64567 0.233861 2.02611 0.387866C1.37307 0.547576 0.74235 0.804252 0.150703 1.13508C0.0446526 1.19782 0 1.29479 0 1.42027V4.94529C0 5.0993 0.0669789 5.16775 0.184192 5.16775C0.262334 5.16775 0.323731 5.12782 0.346058 5.11071C0.770258 4.84262 1.37307 4.58024 2.03169 4.41483C2.66799 4.24942 3.31546 4.16386 3.97408 4.16386C4.43735 4.16386 4.91179 4.20949 5.43646 4.30646C5.96112 4.40342 6.4523 4.5232 6.93232 4.63728C8.16585 4.93959 9.07564 5.07648 9.67287 5.07648C10.3036 5.07648 10.9343 4.97381 11.6153 4.76277C11.9781 4.65439 12.3353 4.5118 12.6758 4.34638C12.9548 4.20949 13.2172 4.05548 13.4628 3.88437C13.5632 3.81021 13.619 3.73606 13.619 3.59917V0.176821C13.619 0.0627431 13.58 0 13.4795 0M13.3623 7.96837H4.77225C3.33778 7.96837 2.1824 8.41327 1.30609 9.30879C0.435363 10.1929 0 11.3736 0 12.8452V21.749C0 21.9201 0.0837237 22 0.245589 22H3.7564C3.91827 22 4.00199 21.9144 4.00199 21.749V13.6324C4.00199 13.1304 4.14711 12.7311 4.43177 12.4345C4.72201 12.1436 5.10714 11.9953 5.6039 11.9953H13.3623C13.5242 11.9953 13.6079 11.9098 13.6079 11.7444V8.21934C13.6079 8.05393 13.5242 7.96837 13.3623 7.96837Z" fill="black"/>
</svg>
