<?xml version="1.0" encoding="UTF-8"?>
<svg id="Layer_2" data-name="Layer 2" xmlns="http://www.w3.org/2000/svg" viewBox="0 0 39.7 83.25">
  <g id="Layer_1-2" data-name="Layer 1">
    <path id="genie" d="M34.03,.53l-5.22,3.1c-2.69-1.37-5.74-2.14-8.96-2.14C8.95,1.49,.11,10.27,0,21.14h0v20.44H0c.11,10.87,8.95,19.65,19.84,19.65,2.57,0,5.02-.49,7.27-1.38v3.54c0,4.02-3.26,7.27-7.27,7.27-2.65,0-4.97-1.54-6.24-2.93-1.06-1.16-2.58-1.79-4.15-1.79h0c-5.77,0-8.78,6.94-4.77,11.09,3.65,3.78,9.11,6.21,15.16,6.21,10.9,0,19.74-8.78,19.84-19.65h0V3.76c0-2.91-3.17-4.71-5.67-3.23Zm-6.91,40.68c0,3.94-3.07,7.3-7.01,7.44-4.14,.15-7.54-3.16-7.54-7.27V21.51c0-3.94,3.07-7.3,7.01-7.44,4.14-.15,7.54,3.16,7.54,7.27v19.87Z"/>
  </g>
</svg>